<svg width="174" height="174" viewBox="0 0 174 174" fill="none" xmlns="http://www.w3.org/2000/svg">
<circle cx="87" cy="87" r="87" fill="#083344"/>
<path d="M67.424 40.056C66.656 44.664 65.888 49.144 65.12 53.496C64.48 57.72 63.968 62.328 63.584 67.32C63.2 72.184 63.008 77.944 63.008 84.6C63.008 97.528 64.096 107.448 66.272 114.36C68.576 121.144 71.584 125.816 75.296 128.376C79.136 130.808 83.232 132.024 87.584 132.024L114.464 131.832V141.816C112.8 142.328 110.112 142.84 106.4 143.352C102.816 143.864 98.976 144.312 94.88 144.696C90.912 145.208 87.392 145.592 84.32 145.848C81.248 146.104 79.328 146.232 78.56 146.232C72.928 146.232 67.424 144.312 62.048 140.472C56.8 136.632 52.448 130.68 48.992 122.616C45.664 114.424 44 103.992 44 91.32C44 82.488 44.512 74.424 45.536 67.128C46.688 59.832 48.096 54.008 49.76 49.656C51.168 47.608 53.024 45.432 55.328 43.128C57.632 40.696 60 38.456 62.432 36.408L67.424 40.056ZM75.488 132.408V44.088C75.488 42.68 76 40.44 77.024 37.368C78.176 34.296 79.392 31.032 80.672 27.576H85.472V121.464C85.472 122.232 85.152 123.64 84.512 125.688C83.872 127.608 82.848 129.848 81.44 132.408H75.488ZM114.848 62.136H104.48L102.176 42.552C100.64 42.168 98.72 41.784 96.416 41.4C94.112 41.016 91.872 40.696 89.696 40.44C87.648 40.184 85.92 40.056 84.512 40.056C83.232 40.056 82.08 40.12 81.056 40.248C80.16 40.248 79.392 40.312 78.752 40.44L80.672 27.576C81.312 27.32 81.824 27.192 82.208 27.192C82.592 27.064 83.04 27 83.552 27C84.832 27 87.392 27.128 91.232 27.384C95.2 27.512 99.552 27.704 104.288 27.96C109.024 28.216 113.312 28.536 117.152 28.92L114.848 62.136Z" fill="white"/>
</svg>
